<svg version="1.1" xmlns="http://www.w3.org/2000/svg" xmlns:xlink="http://www.w3.org/1999/xlink" width="906" height="120.5"><style xmlns="http://www.w3.org/1999/xhtml"></style><defs/><g transform="translate(0,0)"><g><rect fill="#FFFFFF" stroke="none" x="0" y="0" width="906" height="120.5"/></g><g transform="translate(0,0) matrix(1,0,0,1,170,10.5)"><g><g transform="translate(0,0) scale(1.3,0.9)"><g><path fill="#0099CC" stroke="none" d="M 0 0 L 100 0 Q 100 0 100 0 L 100 100 Q 100 100 100 100 L 0 100 Q 0 100 0 100 L 0 0 Q 0 0 0 0 Z"/><g transform="scale(0.7692307692307692,1.1111111111111112)"><path fill="none" stroke="none" d="M 0 0 L 130 0 Q 130 0 130 0 L 130 90 Q 130 90 130 90 L 0 90 Q 0 90 0 90 L 0 0 Q 0 0 0 0 Z"/><path fill="none" stroke="#0E75AB" d="M 0 0 M 0 0 L 130 0 Q 130 0 130 0 L 130 90 Q 130 90 130 90 L 0 90 Q 0 90 0 90 L 0 0 Q 0 0 0 0 Z" stroke-miterlimit="10" stroke-width="2"/></g></g></g></g></g><g transform="matrix(1,0,0,1,181,35)"><g transform="translate(102,84) matrix(1,0,0,1,0,0) translate(-102,-84)"><g><rect fill="rgb(0,0,0)" stroke="none" x="0" y="0" width="110" height="42" fill-opacity="0"/></g></g><g transform="translate(102,84) matrix(1,0,0,1,0,0) translate(-102,-84)"><g><rect fill="rgb(0,0,0)" stroke="none" x="0" y="0" width="110" height="14" fill-opacity="0"/></g></g><g transform="translate(102,84) matrix(1,0,0,1,0,0) translate(-102,-84)"><g><rect fill="rgb(0,0,0)" stroke="none" x="17" y="0" width="76" height="14" fill-opacity="0"/></g></g><g transform="translate(102,84) matrix(1,0,0,1,0,0) translate(-102,-84)"><g><rect fill="rgb(0,0,0)" stroke="none" x="17" y="0" width="40" height="14" fill-opacity="0"/></g><text fill="rgb(255, 255, 255)" stroke="none" font-family="Arial" font-size="12px" font-style="normal" font-weight="normal" text-decoration="" line-height="14px" x="17" y="11">Action</text><text fill="rgb(255, 255, 255)" stroke="none" font-family="Arial" font-size="12px" font-style="normal" font-weight="normal" text-decoration="" line-height="14px" x="50" y="11">:&#160;</text></g><g transform="translate(102,84) matrix(1,0,0,1,0,0) translate(-102,-84)"><g><rect fill="rgb(0,0,0)" stroke="none" x="57" y="0" width="36" height="14" fill-opacity="0"/></g><text fill="rgb(255, 255, 255)" stroke="none" font-family="Arial" font-size="12px" font-style="normal" font-weight="normal" text-decoration="" line-height="14px" x="57" y="11">Create</text></g><g transform="translate(102,84) matrix(1,0,0,1,0,0) translate(-102,-84)"><g><rect fill="rgb(0,0,0)" stroke="none" x="0" y="14" width="110" height="14" fill-opacity="0"/></g></g><g transform="translate(102,84) matrix(1,0,0,1,0,0) translate(-102,-84)"><g><rect fill="rgb(0,0,0)" stroke="none" x="6" y="14" width="98" height="14" fill-opacity="0"/></g><text fill="rgb(255, 255, 255)" stroke="none" font-family="Arial" font-size="12px" font-style="normal" font-weight="normal" text-decoration="" line-height="14px" x="6" y="25">Status</text><text fill="rgb(255, 255, 255)" stroke="none" font-family="Arial" font-size="12px" font-style="normal" font-weight="normal" text-decoration="" line-height="14px" x="40" y="25">:</text><text fill="rgb(255, 255, 255)" stroke="none" font-family="Arial" font-size="12px" font-style="normal" font-weight="normal" text-decoration="" line-height="14px" x="47" y="25">Scheduled</text></g><g transform="translate(102,84) matrix(1,0,0,1,0,0) translate(-102,-84)"><g><rect fill="rgb(0,0,0)" stroke="none" x="0" y="28" width="110" height="14" fill-opacity="0"/></g></g><g transform="translate(102,84) matrix(1,0,0,1,0,0) translate(-102,-84)"><g><rect fill="rgb(0,0,0)" stroke="none" x="5" y="28" width="100" height="14" fill-opacity="0"/></g><text fill="rgb(255, 255, 255)" stroke="none" font-family="Arial" font-size="12px" font-style="normal" font-weight="normal" text-decoration="" line-height="14px" x="5" y="39">timestamp</text><text fill="rgb(255, 255, 255)" stroke="none" font-family="Arial" font-size="12px" font-style="normal" font-weight="normal" text-decoration="" line-height="14px" x="61" y="39">:</text><text fill="rgb(255, 255, 255)" stroke="none" font-family="Arial" font-size="12px" font-style="normal" font-weight="normal" text-decoration="" line-height="14px" x="67" y="39">&lt;</text><text fill="rgb(255, 255, 255)" stroke="none" font-family="Arial" font-size="12px" font-style="normal" font-weight="normal" text-decoration="" line-height="14px" x="74" y="39">date</text><text fill="rgb(255, 255, 255)" stroke="none" font-family="Arial" font-size="12px" font-style="normal" font-weight="normal" text-decoration="" line-height="14px" x="98" y="39">&gt;</text></g></g><g transform="translate(0,0) matrix(1,0,0,1,30,29)"><g><g transform="translate(0,0) scale(1,0.5)"><g><g transform="scale(1,2)"><path fill="#C6DD58" stroke="none" d="M 25 0 L 75 0 C 88.80711874576984 0 100 11.19288125423016 100 25 C 100 38.80711874576984 88.80711874576984 50 75 50 L 25 50 C 11.19288125423016 50 0 38.80711874576984 0 25 C 0 11.19288125423016 11.19288125423016 0 25 0 Z"/><path fill="none" stroke="#90B328" d="M 25 0 M 25 0 L 75 0 C 88.80711874576984 0 100 11.19288125423016 100 25 C 100 38.80711874576984 88.80711874576984 50 75 50 L 25 50 C 11.19288125423016 50 0 38.80711874576984 0 25 C 0 11.19288125423016 11.19288125423016 0 25 0 Z" stroke-miterlimit="10" stroke-width="2"/></g></g></g></g></g><g transform="matrix(1,0,0,1,40,40)"><g transform="translate(31,28) matrix(1,0,0,1,0,0) translate(-31,-28)"><g><rect fill="rgb(0,0,0)" stroke="none" x="0" y="0" width="81" height="28" fill-opacity="0"/></g></g><g transform="translate(31,28) matrix(1,0,0,1,0,0) translate(-31,-28)"><g><rect fill="rgb(0,0,0)" stroke="none" x="0" y="0" width="81" height="14" fill-opacity="0"/></g></g><g transform="translate(31,28) matrix(1,0,0,1,0,0) translate(-31,-28)"><g><rect fill="rgb(0,0,0)" stroke="none" x="18" y="0" width="45" height="14" fill-opacity="0"/></g><text fill="rgb(28, 33, 12)" stroke="none" font-family="Arial" font-size="12px" font-style="normal" font-weight="normal" text-decoration="" line-height="14px" x="18" y="11">Request</text></g><g transform="translate(31,28) matrix(1,0,0,1,0,0) translate(-31,-28)"><g><rect fill="rgb(0,0,0)" stroke="none" x="0" y="14" width="81" height="14" fill-opacity="0"/></g></g><g transform="translate(31,28) matrix(1,0,0,1,0,0) translate(-31,-28)"><g><rect fill="rgb(0,0,0)" stroke="none" x="13" y="14" width="55" height="14" fill-opacity="0"/></g><text fill="rgb(28, 33, 12)" stroke="none" font-family="Arial" font-size="12px" font-style="normal" font-weight="normal" text-decoration="" line-height="14px" x="13" y="25">Submitted</text></g></g><g transform="translate(0,0) matrix(1,0,0,1,400,10.5)"><g><g transform="translate(0,0) scale(1.3,0.9)"><g><path fill="#0099CC" stroke="none" d="M 0 0 L 100 0 Q 100 0 100 0 L 100 100 Q 100 100 100 100 L 0 100 Q 0 100 0 100 L 0 0 Q 0 0 0 0 Z"/><g transform="scale(0.7692307692307692,1.1111111111111112)"><path fill="none" stroke="none" d="M 0 0 L 130 0 Q 130 0 130 0 L 130 90 Q 130 90 130 90 L 0 90 Q 0 90 0 90 L 0 0 Q 0 0 0 0 Z"/><path fill="none" stroke="#0E75AB" d="M 0 0 M 0 0 L 130 0 Q 130 0 130 0 L 130 90 Q 130 90 130 90 L 0 90 Q 0 90 0 90 L 0 0 Q 0 0 0 0 Z" stroke-miterlimit="10" stroke-width="2"/></g></g></g></g></g><g transform="matrix(1,0,0,1,411,28)"><g transform="translate(123,84) matrix(1,0,0,1,0,0) translate(-123,-84)"><g><rect fill="rgb(0,0,0)" stroke="none" x="0" y="0" width="110" height="56" fill-opacity="0"/></g></g><g transform="translate(123,84) matrix(1,0,0,1,0,0) translate(-123,-84)"><g><rect fill="rgb(0,0,0)" stroke="none" x="0" y="0" width="110" height="14" fill-opacity="0"/></g></g><g transform="translate(123,84) matrix(1,0,0,1,0,0) translate(-123,-84)"><g><rect fill="rgb(0,0,0)" stroke="none" x="18" y="0" width="74" height="14" fill-opacity="0"/></g></g><g transform="translate(123,84) matrix(1,0,0,1,0,0) translate(-123,-84)"><g><rect fill="rgb(0,0,0)" stroke="none" x="18" y="0" width="40" height="14" fill-opacity="0"/></g><text fill="rgb(255, 255, 255)" stroke="none" font-family="Arial" font-size="12px" font-style="normal" font-weight="normal" text-decoration="" line-height="14px" x="18" y="11">Action</text><text fill="rgb(255, 255, 255)" stroke="none" font-family="Arial" font-size="12px" font-style="normal" font-weight="normal" text-decoration="" line-height="14px" x="51" y="11">:&#160;</text></g><g transform="translate(123,84) matrix(1,0,0,1,0,0) translate(-123,-84)"><g><rect fill="rgb(0,0,0)" stroke="none" x="58" y="0" width="34" height="14" fill-opacity="0"/></g><text fill="rgb(255, 255, 255)" stroke="none" font-family="Arial" font-size="12px" font-style="normal" font-weight="normal" text-decoration="" line-height="14px" x="58" y="11">Delete</text></g><g transform="translate(123,84) matrix(1,0,0,1,0,0) translate(-123,-84)"><g><rect fill="rgb(0,0,0)" stroke="none" x="0" y="14" width="110" height="14" fill-opacity="0"/></g></g><g transform="translate(123,84) matrix(1,0,0,1,0,0) translate(-123,-84)"><g><rect fill="rgb(0,0,0)" stroke="none" x="6" y="14" width="98" height="14" fill-opacity="0"/></g><text fill="rgb(255, 255, 255)" stroke="none" font-family="Arial" font-size="12px" font-style="normal" font-weight="normal" text-decoration="" line-height="14px" x="6" y="25">Status</text><text fill="rgb(255, 255, 255)" stroke="none" font-family="Arial" font-size="12px" font-style="normal" font-weight="normal" text-decoration="" line-height="14px" x="40" y="25">:</text><text fill="rgb(255, 255, 255)" stroke="none" font-family="Arial" font-size="12px" font-style="normal" font-weight="normal" text-decoration="" line-height="14px" x="47" y="25">Scheduled</text></g><g transform="translate(123,84) matrix(1,0,0,1,0,0) translate(-123,-84)"><g><rect fill="rgb(0,0,0)" stroke="none" x="0" y="28" width="110" height="28" fill-opacity="0"/></g></g><g transform="translate(123,84) matrix(1,0,0,1,0,0) translate(-123,-84)"><g><rect fill="rgb(0,0,0)" stroke="none" x="23" y="28" width="64" height="28" fill-opacity="0"/></g><text fill="rgb(255, 255, 255)" stroke="none" font-family="Arial" font-size="12px" font-style="normal" font-weight="normal" text-decoration="" line-height="14px" x="23" y="39">to</text><text fill="rgb(255, 255, 255)" stroke="none" font-family="Arial" font-size="12px" font-style="normal" font-weight="normal" text-decoration="" line-height="14px" x="33" y="39">:</text><text fill="rgb(255, 255, 255)" stroke="none" font-family="Arial" font-size="12px" font-style="normal" font-weight="normal" text-decoration="" line-height="14px" x="39" y="39">&lt;</text><text fill="rgb(255, 255, 255)" stroke="none" font-family="Arial" font-size="12px" font-style="normal" font-weight="normal" text-decoration="" line-height="14px" x="46" y="39">date</text><text fill="rgb(255, 255, 255)" stroke="none" font-family="Arial" font-size="12px" font-style="normal" font-weight="normal" text-decoration="" line-height="14px" x="70" y="39">&gt;</text><text fill="rgb(255, 255, 255)" stroke="none" font-family="Arial" font-size="12px" font-style="normal" font-weight="normal" text-decoration="" line-height="14px" x="80" y="39">+</text><text fill="rgb(255, 255, 255)" stroke="none" font-family="Arial" font-size="12px" font-style="normal" font-weight="normal" text-decoration="" line-height="14px" x="29" y="53">&lt;</text><text fill="rgb(255, 255, 255)" stroke="none" font-family="Arial" font-size="12px" font-style="normal" font-weight="normal" text-decoration="" line-height="14px" x="36" y="53">lifetime</text><text fill="rgb(255, 255, 255)" stroke="none" font-family="Arial" font-size="12px" font-style="normal" font-weight="normal" text-decoration="" line-height="14px" x="74" y="53">&gt;</text></g></g><g transform="translate(0,0) matrix(1,0,0,1,780,30.5)"><g><g transform="translate(0,0) scale(1,0.5)"><g><g transform="scale(1,2)"><path fill="#C6DD58" stroke="none" d="M 25 0 L 75 0 C 88.80711874576984 0 100 11.19288125423016 100 25 C 100 38.80711874576984 88.80711874576984 50 75 50 L 25 50 C 11.19288125423016 50 0 38.80711874576984 0 25 C 0 11.19288125423016 11.19288125423016 0 25 0 Z"/><path fill="none" stroke="#90B328" d="M 25 0 M 25 0 L 75 0 C 88.80711874576984 0 100 11.19288125423016 100 25 C 100 38.80711874576984 88.80711874576984 50 75 50 L 25 50 C 11.19288125423016 50 0 38.80711874576984 0 25 C 0 11.19288125423016 11.19288125423016 0 25 0 Z" stroke-miterlimit="10" stroke-width="2"/></g></g></g></g></g><g transform="matrix(1,0,0,1,790,42)"><g transform="translate(56,42) matrix(1,0,0,1,0,0) translate(-56,-42)"><g><rect fill="rgb(0,0,0)" stroke="none" x="0" y="0" width="81" height="28" fill-opacity="0"/></g></g><g transform="translate(56,42) matrix(1,0,0,1,0,0) translate(-56,-42)"><g><rect fill="rgb(0,0,0)" stroke="none" x="0" y="0" width="81" height="14" fill-opacity="0"/></g></g><g transform="translate(56,42) matrix(1,0,0,1,0,0) translate(-56,-42)"><g><rect fill="rgb(0,0,0)" stroke="none" x="16" y="0" width="49" height="14" fill-opacity="0"/></g></g><g transform="translate(56,42) matrix(1,0,0,1,0,0) translate(-56,-42)"><g><rect fill="rgb(0,0,0)" stroke="none" x="16" y="0" width="49" height="14" fill-opacity="0"/></g><text fill="rgb(28, 33, 12)" stroke="none" font-family="Arial" font-size="12px" font-style="normal" font-weight="normal" text-decoration="" line-height="14px" x="16" y="11">Request</text></g><g transform="translate(56,42) matrix(1,0,0,1,0,0) translate(-56,-42)"><g><rect fill="rgb(0,0,0)" stroke="none" x="0" y="14" width="81" height="14" fill-opacity="0"/></g></g><g transform="translate(56,42) matrix(1,0,0,1,0,0) translate(-56,-42)"><g><rect fill="rgb(0,0,0)" stroke="none" x="12" y="14" width="57" height="14" fill-opacity="0"/></g></g><g transform="translate(56,42) matrix(1,0,0,1,0,0) translate(-56,-42)"><g><rect fill="rgb(0,0,0)" stroke="none" x="12" y="14" width="57" height="14" fill-opacity="0"/></g><text fill="rgb(28, 33, 12)" stroke="none" font-family="Arial" font-size="12px" font-style="normal" font-weight="normal" text-decoration="" line-height="14px" x="12" y="25">Processed</text></g></g><g transform="translate(0,0) matrix(1,0,0,1,630,10)"><g><g transform="translate(0,0) scale(1.2,0.9)"><g><path fill="#0099CC" stroke="none" d="M 0 0 L 100 0 Q 100 0 100 0 L 100 100 Q 100 100 100 100 L 0 100 Q 0 100 0 100 L 0 0 Q 0 0 0 0 Z"/><g transform="scale(0.8333333333333334,1.1111111111111112)"><path fill="none" stroke="none" d="M 0 0 L 120 0 Q 120 0 120 0 L 120 90 Q 120 90 120 90 L 0 90 Q 0 90 0 90 L 0 0 Q 0 0 0 0 Z"/><path fill="none" stroke="#0E75AB" d="M 0 0 M 0 0 L 120 0 Q 120 0 120 0 L 120 90 Q 120 90 120 90 L 0 90 Q 0 90 0 90 L 0 0 Q 0 0 0 0 Z" stroke-miterlimit="10" stroke-width="2"/></g></g></g></g></g><g transform="matrix(1,0,0,1,640,41)"><g transform="translate(89,28) matrix(1,0,0,1,0,0) translate(-89,-28)"><g><rect fill="rgb(0,0,0)" stroke="none" x="0" y="0" width="100" height="28" fill-opacity="0"/></g></g><g transform="translate(89,28) matrix(1,0,0,1,0,0) translate(-89,-28)"><g><rect fill="rgb(0,0,0)" stroke="none" x="0" y="0" width="100" height="14" fill-opacity="0"/></g></g><g transform="translate(89,28) matrix(1,0,0,1,0,0) translate(-89,-28)"><g><rect fill="rgb(0,0,0)" stroke="none" x="16" y="0" width="68" height="14" fill-opacity="0"/></g></g><g transform="translate(89,28) matrix(1,0,0,1,0,0) translate(-89,-28)"><g><rect fill="rgb(0,0,0)" stroke="none" x="16" y="0" width="40" height="14" fill-opacity="0"/></g><text fill="rgb(255, 255, 255)" stroke="none" font-family="Arial" font-size="12px" font-style="normal" font-weight="normal" text-decoration="" line-height="14px" x="16" y="11">Action</text><text fill="rgb(255, 255, 255)" stroke="none" font-family="Arial" font-size="12px" font-style="normal" font-weight="normal" text-decoration="" line-height="14px" x="49" y="11">:&#160;</text></g><g transform="translate(89,28) matrix(1,0,0,1,0,0) translate(-89,-28)"><g><rect fill="rgb(0,0,0)" stroke="none" x="56" y="0" width="28" height="14" fill-opacity="0"/></g><text fill="rgb(255, 255, 255)" stroke="none" font-family="Arial" font-size="12px" font-style="normal" font-weight="normal" text-decoration="" line-height="14px" x="56" y="11">Done</text></g><g transform="translate(89,28) matrix(1,0,0,1,0,0) translate(-89,-28)"><g><rect fill="rgb(0,0,0)" stroke="none" x="0" y="14" width="100" height="14" fill-opacity="0"/></g></g><g transform="translate(89,28) matrix(1,0,0,1,0,0) translate(-89,-28)"><g><rect fill="rgb(0,0,0)" stroke="none" x="1" y="14" width="98" height="14" fill-opacity="0"/></g><text fill="rgb(255, 255, 255)" stroke="none" font-family="Arial" font-size="12px" font-style="normal" font-weight="normal" text-decoration="" line-height="14px" x="1" y="25">Status</text><text fill="rgb(255, 255, 255)" stroke="none" font-family="Arial" font-size="12px" font-style="normal" font-weight="normal" text-decoration="" line-height="14px" x="35" y="25">:</text><text fill="rgb(255, 255, 255)" stroke="none" font-family="Arial" font-size="12px" font-style="normal" font-weight="normal" text-decoration="" line-height="14px" x="42" y="25">Processed</text></g></g><g transform="matrix(1,0,0,1,125.5,49.5)"><g transform="translate(0,0)"><g transform="translate(-128,-47.5) translate(2.5,-2) matrix(1,0,0,1,0,0)"><g><path fill="none" stroke="#0E75AB" d="M 130 54 Q 143.34270503975029 54 150.01405755962543 54 Q 156.68541007950057 54 170.02811511925086 54" stroke-miterlimit="10" stroke-width="2"/></g></g></g></g><g transform="matrix(1,0,0,1,295.5,51)"><g transform="translate(0,0)"><g transform="translate(-267,-46.5) translate(-28.5,-4.5) matrix(1,0,0,1,0,0)"><g><path fill="none" stroke="#0E75AB" d="M 300 55.5 Q 333.3333333333333 55.5 350 55.5 Q 366.6666666666667 55.5 400 55.5" stroke-miterlimit="10" stroke-width="2"/></g></g></g></g><g transform="matrix(1,0,0,1,320,42)"><g transform="translate(11,28) matrix(1,0,0,1,0,0) translate(-11,-28)"><path fill="none" stroke="none" d="M 0 0 L 61 0 L 61 28 L 0 28 Z"/><g><rect fill="rgb(255, 255, 255)" stroke="none" x="0" y="0" width="61" height="28"/></g></g><g transform="translate(11,28) matrix(1,0,0,1,0,0) translate(-11,-28)"><path fill="none" stroke="none" d="M 0 0 L 61 0 L 61 14 L 0 14 Z"/><g><rect fill="rgb(0,0,0)" stroke="none" x="0" y="0" width="61" height="14" fill-opacity="0"/></g></g><g transform="translate(11,28) matrix(1,0,0,1,0,0) translate(-11,-28)"><path fill="none" stroke="none" d="M 3 0 L 58 0 L 58 14 L 3 14 Z"/><g><rect fill="rgb(0,0,0)" stroke="none" x="3" y="0" width="55" height="14" fill-opacity="0"/></g><text fill="rgb(7, 30, 45)" stroke="none" font-family="Arial" font-size="12px" font-style="normal" font-weight="bold" text-decoration="" line-height="14px" x="3" y="11">Snapshot</text></g><g transform="translate(11,28) matrix(1,0,0,1,0,0) translate(-11,-28)"><path fill="none" stroke="none" d="M 0 14 L 61 14 L 61 28 L 0 28 Z"/><g><rect fill="rgb(0,0,0)" stroke="none" x="0" y="14" width="61" height="14" fill-opacity="0"/></g></g><g transform="translate(11,28) matrix(1,0,0,1,0,0) translate(-11,-28)"><path fill="none" stroke="none" d="M 8 14 L 53 14 L 53 28 L 8 28 Z"/><g><rect fill="rgb(0,0,0)" stroke="none" x="8" y="14" width="45" height="14" fill-opacity="0"/></g><text fill="rgb(7, 30, 45)" stroke="none" font-family="Arial" font-size="12px" font-style="normal" font-weight="bold" text-decoration="" line-height="14px" x="8" y="25">Created</text></g></g><g transform="matrix(1,0,0,1,525.4987500078124,50.5)"><g transform="translate(0,0)"><g transform="translate(-498,-47.5) translate(-27.49875000781242,-3) matrix(1,0,0,1,0,0)"><g><path fill="none" stroke="#0E75AB" d="M 529.9987500078124 55.000000000000036 Q 563.3325000052083 55.00000000000002 579.9993750039062 55.000000000000014 Q 596.6662500026041 55.000000000000014 630 55" stroke-miterlimit="10" stroke-width="2"/></g></g></g></g><g transform="matrix(1,0,0,1,550,41)"><g transform="translate(12,28) matrix(1,0,0,1,0,0) translate(-12,-28)"><path fill="none" stroke="none" d="M 0 0 L 61 0 L 61 28 L 0 28 Z"/><g><rect fill="rgb(255, 255, 255)" stroke="none" x="0" y="0" width="61" height="28"/></g></g><g transform="translate(12,28) matrix(1,0,0,1,0,0) translate(-12,-28)"><path fill="none" stroke="none" d="M 0 0 L 61 0 L 61 14 L 0 14 Z"/><g><rect fill="rgb(0,0,0)" stroke="none" x="0" y="0" width="61" height="14" fill-opacity="0"/></g></g><g transform="translate(12,28) matrix(1,0,0,1,0,0) translate(-12,-28)"><path fill="none" stroke="none" d="M 3 0 L 58 0 L 58 14 L 3 14 Z"/><g><rect fill="rgb(0,0,0)" stroke="none" x="3" y="0" width="55" height="14" fill-opacity="0"/></g><text fill="rgb(7, 30, 45)" stroke="none" font-family="Arial" font-size="12px" font-style="normal" font-weight="bold" text-decoration="" line-height="14px" x="3" y="11">Snapshot</text></g><g transform="translate(12,28) matrix(1,0,0,1,0,0) translate(-12,-28)"><path fill="none" stroke="none" d="M 0 14 L 61 14 L 61 28 L 0 28 Z"/><g><rect fill="rgb(0,0,0)" stroke="none" x="0" y="14" width="61" height="14" fill-opacity="0"/></g></g><g transform="translate(12,28) matrix(1,0,0,1,0,0) translate(-12,-28)"><path fill="none" stroke="none" d="M 9 14 L 52 14 L 52 28 L 9 28 Z"/><g><rect fill="rgb(0,0,0)" stroke="none" x="9" y="14" width="43" height="14" fill-opacity="0"/></g><text fill="rgb(7, 30, 45)" stroke="none" font-family="Arial" font-size="12px" font-style="normal" font-weight="bold" text-decoration="" line-height="14px" x="9" y="25">Deleted</text></g></g><g transform="matrix(1,0,0,1,745.5,50.5)"><g transform="translate(0,0)"><g transform="translate(-701,-47.5) translate(-44.5,-3) matrix(1,0,0,1,0,0)"><g><path fill="none" stroke="#0E75AB" d="M 750 55 Q 760.0013887924516 55 765.0020831886775 55 Q 770.0027775849034 55 780.004166377355 55" stroke-miterlimit="10" stroke-width="2"/></g></g></g></g></g></svg>