<?xml version="1.0" standalone="no"?>
<!DOCTYPE svg PUBLIC "-//W3C//DTD SVG 20010904//EN"
 "http://www.w3.org/TR/2001/REC-SVG-20010904/DTD/svg10.dtd">
<svg version="1.0" xmlns="http://www.w3.org/2000/svg"
 width="222.000000pt" height="222.000000pt" viewBox="0 0 222.000000 222.000000"
 preserveAspectRatio="xMidYMid meet">
<metadata>
Created by potrace 1.13, written by Peter Selinger 2001-2015
</metadata>
<g transform="translate(0.000000,222.000000) scale(0.100000,-0.100000)"
fill="#000000" stroke="none">
<path d="M1203 2026 c-67 -22 -128 -62 -175 -115 l-43 -49 -95 -4 c-116 -6
-184 -33 -261 -105 -65 -60 -96 -110 -123 -193 l-21 -65 -50 -6 c-108 -14
-193 -72 -245 -170 -79 -148 -38 -325 97 -423 79 -58 129 -66 386 -66 l227 0
0 -210 c0 -220 -7 -259 -45 -274 -9 -3 -66 -6 -126 -6 l-109 0 0 -35 0 -35
113 0 c124 0 184 18 209 62 9 16 14 89 18 258 5 234 5 235 28 238 l22 3 0
-280 0 -281 30 0 30 0 2 277 3 278 23 3 22 3 0 -280 0 -281 35 0 35 0 0 280
c0 273 0 280 20 280 19 0 20 -7 20 -220 0 -246 5 -271 61 -311 31 -22 46 -24
157 -28 l122 -3 0 36 0 36 -110 0 c-104 0 -112 1 -135 25 l-25 24 0 221 0 220
153 0 c231 0 330 31 434 136 142 142 168 380 60 550 -38 61 -122 132 -192 166
-46 21 -65 35 -65 49 0 43 -44 132 -91 184 -75 81 -156 118 -268 122 -54 2
-102 -2 -128 -11z m244 -81 c94 -42 168 -142 180 -246 5 -44 8 -49 37 -55 17
-3 49 -15 71 -26 284 -142 282 -540 -3 -680 l-67 -33 -615 -3 c-687 -3 -663
-5 -743 67 -117 106 -116 292 4 394 51 45 133 71 195 64 44 -4 44 -4 49 32 17
119 55 193 128 256 75 64 193 92 303 73 40 -7 42 -6 54 22 14 34 93 111 139
135 77 39 179 40 268 0z"/>
<path d="M831 1476 c-15 -18 -2 -28 96 -76 l78 -38 -87 -41 c-68 -31 -88 -45
-88 -61 0 -11 6 -20 13 -20 6 0 63 23 125 52 144 66 145 73 15 134 -138 64
-140 65 -152 50z"/>
<path d="M1100 1115 l0 -25 150 0 150 0 0 25 0 25 -150 0 -150 0 0 -25z"/>
</g>
</svg>
